<svg xmlns="http://www.w3.org/2000/svg" width="29" height="29" viewBox="0 0 29 29">
  <g id="Grupo_6379" data-name="Grupo 6379" transform="translate(-376 -528.79)">
    <circle id="Elipse_559" data-name="Elipse 559" cx="14.5" cy="14.5" r="14.5" transform="translate(376 528.79)" fill="#08b580"/>
    <path id="user-solid" d="M6.432,7.351A3.675,3.675,0,1,0,2.757,3.675,3.675,3.675,0,0,0,6.432,7.351ZM9,8.27h-.48a5,5,0,0,1-4.187,0h-.48A3.86,3.86,0,0,0,0,12.129v1.195A1.379,1.379,0,0,0,1.378,14.7H11.486a1.379,1.379,0,0,0,1.378-1.378V12.129A3.86,3.86,0,0,0,9,8.27Z" transform="translate(384.11 536.021)" fill="#fff"/>
  </g>
</svg>
